# xmcd
#
# Track frame offsets: 
#        150
#        24058
#        44259
#        61891
#        101504
#        114597
#        127900
#        139505
#        199158
#        219001
#
# Disc length: 3524 seconds
#
# Revision: 0
# Processed by: cddbd v1.5.2PL0 Copyright (c) Steve Scherf et al.
# Submitted via: ExactAudioCopy v0.95b3
#
DISCID=7a0dc20a
DTITLE=Gravenites, Nick - My Labors
DYEAR=1969
DGENRE=Rock
TTITLE0=Killing My Love
TTITLE1=Gypsy Good Time
TTITLE2=Holy Moly
TTITLE3=Moon Tune
TTITLE4=My Labors
TTITLE5=Throw Your Dog A Bone
TTITLE6=As Good As You Been To This World
TTITLE7=Wintry Country Side
TTITLE8=Work Me Lord
TTITLE9=Born In Chicago
EXTD=
EXTT0=
EXTT1=
EXTT2=
EXTT3=
EXTT4=
EXTT5=
EXTT6=
EXTT7=
EXTT8=
EXTT9=
PLAYORDER=
